<?xml version="1.0" standalone="no"?>
<!DOCTYPE svg PUBLIC "-//W3C//DTD SVG 20010904//EN"
        "http://www.w3.org/TR/2001/REC-SVG-20010904/DTD/svg10.dtd">
<svg version="1.0" xmlns="http://www.w3.org/2000/svg"
     width="246.000000pt" height="181.000000pt" viewBox="0 0 246.000000 181.000000"
     preserveAspectRatio="xMidYMid meet">

    <g transform="translate(0.000000,181.000000) scale(0.100000,-0.100000)"
       fill="#3f8a2e" stroke="none">
        <path d="M1176 1265 c-21 -19 -35 -39 -32 -44 4 -5 1 -13 -5 -17 -8 -5 -9 -3
-4 6 5 9 4 11 -3 6 -21 -13 -64 -96 -58 -112 4 -10 2 -13 -6 -8 -8 5 -9 2 -5
-10 4 -9 3 -15 -2 -12 -5 3 -15 -17 -21 -45 -22 -92 4 -228 71 -367 25 -52 44
-80 51 -76 6 4 8 3 5 -3 -4 -5 7 -42 23 -81 35 -83 32 -102 -27 -151 l-38 -32
33 -29 c18 -17 44 -30 58 -30 30 0 75 22 95 46 12 15 11 19 -11 33 -48 31 -70
60 -70 91 0 17 27 85 65 160 90 180 115 258 115 362 0 90 -7 131 -21 122 -5
-3 -6 2 -3 10 15 38 -116 216 -158 216 -8 0 -31 -16 -52 -35z m128 -613 c3 -5
-1 -9 -9 -9 -8 0 -12 4 -9 9 3 4 7 8 9 8 2 0 6 -4 9 -8z"/>
        <path d="M897 1159 c-49 -26 -74 -67 -82 -138 -10 -90 31 -271 58 -254 6 4 7
1 2 -6 -11 -18 58 -113 128 -177 33 -30 62 -52 64 -50 3 2 -2 17 -10 33 -26
50 -86 230 -97 295 -7 35 -15 120 -18 190 l-7 126 -38 -19z"/>
        <path d="M1500 1071 c0 -59 -7 -146 -15 -193 -14 -82 -71 -263 -102 -321 -14
-28 -14 -28 7 -17 41 22 122 108 115 121 -5 7 -4 10 3 5 14 -8 79 96 98 159
21 71 29 192 15 242 -14 53 -37 79 -83 98 l-38 15 0 -109z"/>
        <path d="M691 994 c-22 -16 -23 -22 -19 -98 10 -155 88 -261 236 -317 l27 -10
-31 33 c-89 93 -144 221 -147 344 -2 57 -4 64 -22 64 -11 0 -31 -7 -44 -16z"/>
        <path d="M1687 933 c-6 -94 -40 -192 -91 -263 -20 -28 -34 -55 -31 -61 4 -5 3
-8 -2 -7 -4 2 -19 -5 -33 -15 -37 -26 -16 -21 55 13 114 55 176 152 183 290 5
92 0 103 -49 115 l-26 6 -6 -78z"/>
        <path d="M675 553 c-11 -3 -24 -10 -30 -15 -7 -8 -5 -9 7 -5 12 4 15 2 11 -8
-3 -8 -10 -12 -15 -9 -6 4 -5 -3 2 -15 6 -12 15 -19 20 -16 5 3 12 0 16 -6 4
-8 3 -9 -4 -5 -23 14 -12 -10 16 -37 16 -15 32 -24 37 -20 4 5 5 3 1 -4 -4 -8
12 -22 46 -40 45 -23 68 -27 153 -31 55 -2 110 0 122 5 22 8 22 9 -21 64 -46
58 -88 88 -170 121 -50 19 -155 31 -191 21z"/>
        <path d="M1605 546 c-92 -29 -161 -77 -205 -144 -38 -57 -33 -60 92 -61 114
-1 184 24 247 88 25 25 53 59 61 75 13 26 13 29 -5 42 -24 18 -135 18 -190 0z"/>
    </g>
</svg>
